<svg width="71" height="25" viewBox="0 0 71 25" fill="none" xmlns="http://www.w3.org/2000/svg">
<path d="M9.53072 9.12552C10.157 9.2244 10.7255 9.47984 11.2364 9.89184C11.7638 10.3038 12.1758 10.8147 12.4724 11.4245C12.7855 12.0342 12.9421 12.6852 12.9421 13.3774C12.9421 14.2508 12.7196 15.0418 12.2746 15.7505C11.8297 16.4426 11.1787 16.9947 10.3218 17.4067C9.48128 17.8022 8.48424 18 7.33064 18H0.90344V0.77016H7.08344C8.25352 0.77016 9.25056 0.96792 10.0746 1.36344C10.8986 1.74248 11.5166 2.2616 11.9286 2.9208C12.3406 3.58 12.5466 4.3216 12.5466 5.1456C12.5466 6.16736 12.2664 7.01608 11.7061 7.69176C11.1622 8.35096 10.4371 8.82888 9.53072 9.12552ZM3.15296 8.21088H6.93512C7.98984 8.21088 8.8056 7.96368 9.3824 7.46928C9.9592 6.97488 10.2476 6.29096 10.2476 5.41752C10.2476 4.54408 9.9592 3.86016 9.3824 3.36576C8.8056 2.87136 7.97336 2.62416 6.88568 2.62416H3.15296V8.21088ZM7.13288 16.146C8.25352 16.146 9.12696 15.8823 9.7532 15.355C10.3794 14.8276 10.6926 14.0942 10.6926 13.1549C10.6926 12.199 10.363 11.4492 9.70376 10.9054C9.04456 10.345 8.16288 10.0649 7.05872 10.0649H3.15296V16.146H7.13288ZM15.2233 11.1773C15.2233 9.79296 15.5034 8.58168 16.0638 7.54344C16.6241 6.48872 17.3904 5.67296 18.3627 5.09616C19.3515 4.51936 20.4474 4.23096 21.6505 4.23096C22.837 4.23096 23.867 4.4864 24.7405 4.99728C25.6139 5.50816 26.2649 6.15088 26.6934 6.92544V4.45344H28.9676V18H26.6934V15.4786C26.2484 16.2696 25.581 16.9288 24.691 17.4562C23.8176 17.967 22.7958 18.2225 21.6258 18.2225C20.4227 18.2225 19.335 17.9258 18.3627 17.3326C17.3904 16.7393 16.6241 15.907 16.0638 14.8358C15.5034 13.7646 15.2233 12.5451 15.2233 11.1773ZM26.6934 11.202C26.6934 10.1802 26.4874 9.29032 26.0754 8.53224C25.6634 7.77416 25.103 7.19736 24.3944 6.80184C23.7022 6.38984 22.9359 6.18384 22.0954 6.18384C21.255 6.18384 20.4886 6.3816 19.7965 6.77712C19.1043 7.17264 18.5522 7.74944 18.1402 8.50752C17.7282 9.2656 17.5222 10.1555 17.5222 11.1773C17.5222 12.2155 17.7282 13.1219 18.1402 13.8965C18.5522 14.6546 19.1043 15.2396 19.7965 15.6516C20.4886 16.0471 21.255 16.2449 22.0954 16.2449C22.9359 16.2449 23.7022 16.0471 24.3944 15.6516C25.103 15.2396 25.6634 14.6546 26.0754 13.8965C26.4874 13.1219 26.6934 12.2238 26.6934 11.202ZM44.4369 4.45344L36.2793 24.3778H33.9556L36.6254 17.8517L31.1623 4.45344H33.659L37.9108 15.4291L42.1132 4.45344H44.4369ZM45.8577 11.1773C45.8577 9.79296 46.1379 8.58168 46.6982 7.54344C47.2585 6.48872 48.0248 5.67296 48.9972 5.09616C49.986 4.51936 51.0819 4.23096 52.2849 4.23096C53.4715 4.23096 54.5015 4.4864 55.3749 4.99728C56.2484 5.50816 56.8993 6.15088 57.3278 6.92544V4.45344H59.602V18H57.3278V15.4786C56.8828 16.2696 56.2154 16.9288 55.3255 17.4562C54.452 17.967 53.4303 18.2225 52.2602 18.2225C51.0572 18.2225 49.9695 17.9258 48.9972 17.3326C48.0248 16.7393 47.2585 15.907 46.6982 14.8358C46.1379 13.7646 45.8577 12.5451 45.8577 11.1773ZM57.3278 11.202C57.3278 10.1802 57.1218 9.29032 56.7098 8.53224C56.2978 7.77416 55.7375 7.19736 55.0288 6.80184C54.3367 6.38984 53.5704 6.18384 52.7299 6.18384C51.8894 6.18384 51.1231 6.3816 50.4309 6.77712C49.7388 7.17264 49.1867 7.74944 48.7747 8.50752C48.3627 9.2656 48.1567 10.1555 48.1567 11.1773C48.1567 12.2155 48.3627 13.1219 48.7747 13.8965C49.1867 14.6546 49.7388 15.2396 50.4309 15.6516C51.1231 16.0471 51.8894 16.2449 52.7299 16.2449C53.5704 16.2449 54.3367 16.0471 55.0288 15.6516C55.7375 15.2396 56.2978 14.6546 56.7098 13.8965C57.1218 13.1219 57.3278 12.2238 57.3278 11.202ZM65.653 6.65352C66.0486 5.87896 66.6089 5.27744 67.334 4.84896C68.0756 4.42048 68.9738 4.20624 70.0285 4.20624V6.52992H69.4352C66.9138 6.52992 65.653 7.89776 65.653 10.6334V18H63.4035V4.45344H65.653V6.65352Z" fill="#5E5E5E"/>
</svg>
