<svg width="24" height="24" viewBox="0 0 24 24" fill="none" xmlns="http://www.w3.org/2000/svg">
<path d="M12 0C9.21628 0.00344012 6.54757 1.11079 4.57918 3.07918C2.61079 5.04757 1.50344 7.71628 1.5 10.5C1.5 13.326 3.7 17.266 8.041 22.209C8.53604 22.7715 9.14526 23.2222 9.82808 23.5308C10.5109 23.8395 11.2517 23.9992 12.001 23.9992C12.7503 23.9992 13.4911 23.8395 14.1739 23.5308C14.8567 23.2222 15.466 22.7715 15.961 22.209C20.3 17.267 22.5 13.327 22.5 10.5C22.4966 7.71628 21.3892 5.04757 19.4208 3.07918C17.4524 1.11079 14.7837 0.00344012 12 0V0ZM13.706 20.231C13.4879 20.4654 13.2239 20.6524 12.9304 20.7802C12.6369 20.9081 12.3202 20.974 12 20.974C11.6798 20.974 11.3631 20.9081 11.0696 20.7802C10.7761 20.6524 10.5121 20.4654 10.294 20.231C6.611 16.036 4.494 12.489 4.494 10.501C4.494 8.51188 5.28418 6.60422 6.6907 5.1977C8.09722 3.79118 10.0049 3.001 11.994 3.001C13.9831 3.001 15.8908 3.79118 17.2973 5.1977C18.7038 6.60422 19.494 8.51188 19.494 10.501C19.5 12.489 17.389 16.036 13.706 20.231Z" fill="#6B7280"/>
<path d="M11.9997 6.05566C11.1368 6.05566 10.2933 6.31155 9.57577 6.79096C8.85828 7.27037 8.29906 7.95178 7.96883 8.74902C7.63861 9.54625 7.55221 10.4235 7.72055 11.2698C7.8889 12.1162 8.30444 12.8936 8.91461 13.5038C9.52479 14.1139 10.3022 14.5295 11.1485 14.6978C11.9949 14.8662 12.8721 14.7798 13.6694 14.4496C14.4666 14.1193 15.148 13.5601 15.6274 12.8426C16.1068 12.1251 16.3627 11.2816 16.3627 10.4187C16.3614 9.26193 15.9013 8.15295 15.0834 7.33502C14.2654 6.51708 13.1565 6.05699 11.9997 6.05566V6.05566ZM11.9997 11.7817C11.7301 11.7817 11.4666 11.7017 11.2425 11.552C11.0183 11.4022 10.8436 11.1893 10.7405 10.9403C10.6373 10.6912 10.6103 10.4172 10.6629 10.1528C10.7155 9.88836 10.8453 9.6455 11.0359 9.45488C11.2266 9.26426 11.4694 9.13445 11.7338 9.08185C11.9982 9.02926 12.2723 9.05625 12.5213 9.15942C12.7704 9.26258 12.9832 9.43728 13.133 9.66142C13.2828 9.88557 13.3627 10.1491 13.3627 10.4187C13.3625 10.7801 13.2188 11.1266 12.9632 11.3822C12.7077 11.6377 12.3611 11.7814 11.9997 11.7817V11.7817Z" fill="#6B7280"/>
</svg>
