<svg width="809" height="168" viewBox="0 0 809 168" fill="none" xmlns="http://www.w3.org/2000/svg">
<path d="M23.423 148.813C23.423 150.247 22.9286 151.442 21.9398 152.397C20.9674 153.337 19.476 153.806 17.4654 153.806H14.153V161H11.9034V143.77H17.4654C19.4101 143.77 20.885 144.24 21.8903 145.179C22.9121 146.119 23.423 147.33 23.423 148.813ZM17.4654 151.952C18.7179 151.952 19.6408 151.681 20.2341 151.137C20.8274 150.593 21.124 149.818 21.124 148.813C21.124 146.687 19.9045 145.624 17.4654 145.624H14.153V151.952H17.4654ZM27.3807 145.253C26.9522 145.253 26.5896 145.105 26.293 144.808C25.9964 144.512 25.848 144.149 25.848 143.721C25.848 143.292 25.9964 142.93 26.293 142.633C26.5896 142.336 26.9522 142.188 27.3807 142.188C27.7927 142.188 28.1388 142.336 28.4189 142.633C28.7156 142.93 28.8639 143.292 28.8639 143.721C28.8639 144.149 28.7156 144.512 28.4189 144.808C28.1388 145.105 27.7927 145.253 27.3807 145.253ZM28.4684 147.453V161H26.2188V147.453H28.4684ZM34.5518 142.707V161H32.3023V142.707H34.5518ZM39.5475 145.253C39.1191 145.253 38.7565 145.105 38.4599 144.808C38.1632 144.512 38.0149 144.149 38.0149 143.721C38.0149 143.292 38.1632 142.93 38.4599 142.633C38.7565 142.336 39.1191 142.188 39.5475 142.188C39.9595 142.188 40.3056 142.336 40.5858 142.633C40.8824 142.93 41.0307 143.292 41.0307 143.721C41.0307 144.149 40.8824 144.512 40.5858 144.808C40.3056 145.105 39.9595 145.253 39.5475 145.253ZM40.6352 147.453V161H38.3857V147.453H40.6352ZM51.193 147.206C52.2147 147.206 53.1376 147.429 53.9616 147.874C54.7856 148.302 55.4283 148.953 55.8898 149.827C56.3677 150.7 56.6067 151.763 56.6067 153.015V161H54.3819V153.337C54.3819 151.985 54.044 150.955 53.3683 150.247C52.6927 149.522 51.7698 149.159 50.5997 149.159C49.4131 149.159 48.4655 149.53 47.7569 150.272C47.0647 151.013 46.7187 152.093 46.7187 153.51V161H44.4691V142.707H46.7187V149.382C47.1636 148.689 47.7734 148.154 48.5479 147.775C49.339 147.396 50.2207 147.206 51.193 147.206ZM76.2158 161L69.1212 153.139V161H66.8716V143.77H69.1212V151.755L76.2405 143.77H79.0833L71.2718 152.397L79.1575 161H76.2158ZM87.5779 161.222C86.309 161.222 85.1554 160.934 84.1171 160.357C83.0954 159.78 82.2878 158.965 81.6946 157.91C81.1178 156.839 80.8294 155.603 80.8294 154.202C80.8294 152.818 81.126 151.598 81.7193 150.543C82.329 149.472 83.153 148.656 84.1913 148.096C85.2295 147.519 86.3914 147.231 87.6768 147.231C88.9622 147.231 90.1241 147.519 91.1623 148.096C92.2006 148.656 93.0163 149.464 93.6096 150.519C94.2194 151.573 94.5242 152.801 94.5242 154.202C94.5242 155.603 94.2111 156.839 93.5849 157.91C92.9751 158.965 92.1429 159.78 91.0882 160.357C90.0334 160.934 88.8634 161.222 87.5779 161.222ZM87.5779 159.245C88.3854 159.245 89.1435 159.055 89.8522 158.676C90.5608 158.297 91.1294 157.729 91.5578 156.971C92.0028 156.213 92.2253 155.29 92.2253 154.202C92.2253 153.114 92.011 152.191 91.5826 151.433C91.1541 150.675 90.5938 150.115 89.9016 149.752C89.2094 149.373 88.4596 149.184 87.6521 149.184C86.8281 149.184 86.07 149.373 85.3778 149.752C84.7022 150.115 84.1583 150.675 83.7463 151.433C83.3343 152.191 83.1283 153.114 83.1283 154.202C83.1283 155.306 83.3261 156.237 83.7216 156.995C84.1336 157.753 84.6774 158.322 85.3531 158.701C86.0288 159.064 86.7704 159.245 87.5779 159.245ZM102.278 161.222C101.239 161.222 100.308 161.049 99.4843 160.703C98.6603 160.341 98.0093 159.846 97.5314 159.22C97.0535 158.577 96.7898 157.844 96.7404 157.02H99.064C99.13 157.696 99.4431 158.248 100.003 158.676C100.58 159.105 101.33 159.319 102.253 159.319C103.11 159.319 103.786 159.13 104.28 158.75C104.774 158.371 105.022 157.894 105.022 157.317C105.022 156.723 104.758 156.287 104.231 156.007C103.703 155.71 102.887 155.422 101.783 155.141C100.778 154.878 99.954 154.614 99.3112 154.35C98.685 154.07 98.1412 153.666 97.6797 153.139C97.2348 152.595 97.0123 151.887 97.0123 151.013C97.0123 150.321 97.2183 149.686 97.6303 149.11C98.0423 148.533 98.6273 148.08 99.3854 147.75C100.143 147.404 101.009 147.231 101.981 147.231C103.481 147.231 104.692 147.61 105.615 148.368C106.538 149.126 107.032 150.164 107.098 151.483H104.849C104.799 150.774 104.511 150.206 103.983 149.777C103.472 149.349 102.78 149.134 101.907 149.134C101.099 149.134 100.457 149.307 99.9787 149.654C99.5008 150 99.2618 150.453 99.2618 151.013C99.2618 151.458 99.4019 151.829 99.682 152.126C99.9787 152.406 100.341 152.636 100.77 152.818C101.215 152.982 101.824 153.172 102.599 153.386C103.571 153.65 104.362 153.914 104.972 154.177C105.582 154.424 106.101 154.804 106.529 155.314C106.974 155.825 107.205 156.493 107.222 157.317C107.222 158.058 107.016 158.726 106.604 159.319C106.192 159.912 105.607 160.382 104.849 160.728C104.107 161.058 103.25 161.222 102.278 161.222Z" fill="#5E5E5E"/>
<path d="M379.423 148.813C379.423 150.247 378.929 151.442 377.94 152.397C376.967 153.337 375.476 153.806 373.465 153.806H370.153V161H367.903V143.77H373.465C375.41 143.77 376.885 144.24 377.89 145.179C378.912 146.119 379.423 147.33 379.423 148.813ZM373.465 151.952C374.718 151.952 375.641 151.681 376.234 151.137C376.827 150.593 377.124 149.818 377.124 148.813C377.124 146.687 375.904 145.624 373.465 145.624H370.153V151.952H373.465ZM394.579 153.708C394.579 154.136 394.554 154.589 394.505 155.067H383.677C383.76 156.402 384.213 157.449 385.037 158.207C385.877 158.948 386.891 159.319 388.077 159.319C389.05 159.319 389.857 159.097 390.5 158.652C391.159 158.19 391.621 157.58 391.884 156.822H394.307C393.944 158.124 393.219 159.187 392.132 160.011C391.044 160.819 389.693 161.222 388.077 161.222C386.792 161.222 385.638 160.934 384.617 160.357C383.611 159.78 382.82 158.965 382.244 157.91C381.667 156.839 381.378 155.603 381.378 154.202C381.378 152.801 381.659 151.573 382.219 150.519C382.779 149.464 383.562 148.656 384.567 148.096C385.589 147.519 386.759 147.231 388.077 147.231C389.363 147.231 390.5 147.511 391.489 148.071C392.478 148.632 393.236 149.406 393.763 150.395C394.307 151.367 394.579 152.472 394.579 153.708ZM392.255 153.238C392.255 152.381 392.066 151.648 391.687 151.038C391.308 150.412 390.788 149.942 390.129 149.629C389.487 149.299 388.77 149.134 387.979 149.134C386.841 149.134 385.869 149.497 385.062 150.222C384.271 150.947 383.817 151.952 383.702 153.238H392.255ZM402.344 161.222C401.306 161.222 400.374 161.049 399.55 160.703C398.726 160.341 398.075 159.846 397.598 159.22C397.12 158.577 396.856 157.844 396.807 157.02H399.13C399.196 157.696 399.509 158.248 400.07 158.676C400.646 159.105 401.396 159.319 402.319 159.319C403.176 159.319 403.852 159.13 404.346 158.75C404.841 158.371 405.088 157.894 405.088 157.317C405.088 156.723 404.824 156.287 404.297 156.007C403.769 155.71 402.954 155.422 401.849 155.141C400.844 154.878 400.02 154.614 399.377 154.35C398.751 154.07 398.207 153.666 397.746 153.139C397.301 152.595 397.078 151.887 397.078 151.013C397.078 150.321 397.284 149.686 397.696 149.11C398.108 148.533 398.693 148.08 399.452 147.75C400.21 147.404 401.075 147.231 402.047 147.231C403.547 147.231 404.758 147.61 405.681 148.368C406.604 149.126 407.098 150.164 407.164 151.483H404.915C404.865 150.774 404.577 150.206 404.049 149.777C403.539 149.349 402.846 149.134 401.973 149.134C401.165 149.134 400.523 149.307 400.045 149.654C399.567 150 399.328 150.453 399.328 151.013C399.328 151.458 399.468 151.829 399.748 152.126C400.045 152.406 400.407 152.636 400.836 152.818C401.281 152.982 401.891 153.172 402.665 153.386C403.637 153.65 404.429 153.914 405.038 154.177C405.648 154.424 406.167 154.804 406.596 155.314C407.041 155.825 407.271 156.493 407.288 157.317C407.288 158.058 407.082 158.726 406.67 159.319C406.258 159.912 405.673 160.382 404.915 160.728C404.173 161.058 403.316 161.222 402.344 161.222ZM409.623 154.177C409.623 152.793 409.903 151.582 410.463 150.543C411.024 149.489 411.79 148.673 412.762 148.096C413.751 147.519 414.847 147.231 416.05 147.231C417.237 147.231 418.267 147.486 419.14 147.997C420.014 148.508 420.664 149.151 421.093 149.925V147.453H423.367V161H421.093V158.479C420.648 159.27 419.981 159.929 419.091 160.456C418.217 160.967 417.195 161.222 416.025 161.222C414.822 161.222 413.735 160.926 412.762 160.333C411.79 159.739 411.024 158.907 410.463 157.836C409.903 156.765 409.623 155.545 409.623 154.177ZM421.093 154.202C421.093 153.18 420.887 152.29 420.475 151.532C420.063 150.774 419.503 150.197 418.794 149.802C418.102 149.39 417.336 149.184 416.495 149.184C415.655 149.184 414.888 149.382 414.196 149.777C413.504 150.173 412.952 150.749 412.54 151.508C412.128 152.266 411.922 153.156 411.922 154.177C411.922 155.216 412.128 156.122 412.54 156.896C412.952 157.655 413.504 158.24 414.196 158.652C414.888 159.047 415.655 159.245 416.495 159.245C417.336 159.245 418.102 159.047 418.794 158.652C419.503 158.24 420.063 157.655 420.475 156.896C420.887 156.122 421.093 155.224 421.093 154.202ZM433.769 147.206C435.417 147.206 436.752 147.709 437.774 148.714C438.795 149.703 439.306 151.137 439.306 153.015V161H437.081V153.337C437.081 151.985 436.744 150.955 436.068 150.247C435.392 149.522 434.469 149.159 433.299 149.159C432.113 149.159 431.165 149.53 430.456 150.272C429.764 151.013 429.418 152.093 429.418 153.51V161H427.169V147.453H429.418V149.382C429.863 148.689 430.465 148.154 431.223 147.775C431.997 147.396 432.846 147.206 433.769 147.206Z" fill="#5E5E5E"/>
<path d="M722.531 152.126C723.157 152.224 723.726 152.48 724.236 152.892C724.764 153.304 725.176 153.815 725.472 154.424C725.786 155.034 725.942 155.685 725.942 156.377C725.942 157.251 725.72 158.042 725.275 158.75C724.83 159.443 724.179 159.995 723.322 160.407C722.481 160.802 721.484 161 720.331 161H713.903V143.77H720.083C721.254 143.77 722.251 143.968 723.075 144.363C723.899 144.742 724.517 145.262 724.929 145.921C725.341 146.58 725.547 147.322 725.547 148.146C725.547 149.167 725.266 150.016 724.706 150.692C724.162 151.351 723.437 151.829 722.531 152.126ZM716.153 151.211H719.935C720.99 151.211 721.806 150.964 722.382 150.469C722.959 149.975 723.248 149.291 723.248 148.418C723.248 147.544 722.959 146.86 722.382 146.366C721.806 145.871 720.973 145.624 719.886 145.624H716.153V151.211ZM720.133 159.146C721.254 159.146 722.127 158.882 722.753 158.355C723.379 157.828 723.693 157.094 723.693 156.155C723.693 155.199 723.363 154.449 722.704 153.905C722.045 153.345 721.163 153.065 720.059 153.065H716.153V159.146H720.133ZM728.223 154.177C728.223 152.793 728.503 151.582 729.064 150.543C729.624 149.489 730.39 148.673 731.363 148.096C732.352 147.519 733.447 147.231 734.65 147.231C735.837 147.231 736.867 147.486 737.74 147.997C738.614 148.508 739.265 149.151 739.693 149.925V147.453H741.968V161H739.693V158.479C739.248 159.27 738.581 159.929 737.691 160.456C736.818 160.967 735.796 161.222 734.626 161.222C733.423 161.222 732.335 160.926 731.363 160.333C730.39 159.739 729.624 158.907 729.064 157.836C728.503 156.765 728.223 155.545 728.223 154.177ZM739.693 154.202C739.693 153.18 739.487 152.29 739.075 151.532C738.663 150.774 738.103 150.197 737.394 149.802C736.702 149.39 735.936 149.184 735.095 149.184C734.255 149.184 733.489 149.382 732.796 149.777C732.104 150.173 731.552 150.749 731.14 151.508C730.728 152.266 730.522 153.156 730.522 154.177C730.522 155.216 730.728 156.122 731.14 156.896C731.552 157.655 732.104 158.24 732.796 158.652C733.489 159.047 734.255 159.245 735.095 159.245C735.936 159.245 736.702 159.047 737.394 158.652C738.103 158.24 738.663 157.655 739.075 156.896C739.487 156.122 739.693 155.224 739.693 154.202ZM757.437 147.453L749.279 167.378H746.956L749.625 160.852L744.162 147.453H746.659L750.911 158.429L755.113 147.453H757.437ZM758.858 154.177C758.858 152.793 759.138 151.582 759.698 150.543C760.259 149.489 761.025 148.673 761.997 148.096C762.986 147.519 764.082 147.231 765.285 147.231C766.471 147.231 767.501 147.486 768.375 147.997C769.248 148.508 769.899 149.151 770.328 149.925V147.453H772.602V161H770.328V158.479C769.883 159.27 769.215 159.929 768.325 160.456C767.452 160.967 766.43 161.222 765.26 161.222C764.057 161.222 762.969 160.926 761.997 160.333C761.025 159.739 760.259 158.907 759.698 157.836C759.138 156.765 758.858 155.545 758.858 154.177ZM770.328 154.202C770.328 153.18 770.122 152.29 769.71 151.532C769.298 150.774 768.737 150.197 768.029 149.802C767.337 149.39 766.57 149.184 765.73 149.184C764.889 149.184 764.123 149.382 763.431 149.777C762.739 150.173 762.187 150.749 761.775 151.508C761.363 152.266 761.157 153.156 761.157 154.177C761.157 155.216 761.363 156.122 761.775 156.896C762.187 157.655 762.739 158.24 763.431 158.652C764.123 159.047 764.889 159.245 765.73 159.245C766.57 159.245 767.337 159.047 768.029 158.652C768.737 158.24 769.298 157.655 769.71 156.896C770.122 156.122 770.328 155.224 770.328 154.202ZM778.653 149.654C779.049 148.879 779.609 148.277 780.334 147.849C781.076 147.42 781.974 147.206 783.028 147.206V149.53H782.435C779.914 149.53 778.653 150.898 778.653 153.633V161H776.404V147.453H778.653V149.654Z" fill="#5E5E5E"/>
<circle cx="60.5" cy="60.5" r="59" stroke="#5E5E5E" stroke-width="3"/>
<circle cx="404.5" cy="60.5" r="59" stroke="#5E5E5E" stroke-width="3"/>
<circle cx="748.5" cy="60.5" r="59" stroke="#5E5E5E" stroke-width="3"/>
<line x1="151" y1="60.5" x2="307" y2="60.5" stroke="black"/>
<line x1="498" y1="60.5" x2="654" y2="60.5" stroke="black"/>
<path d="M51.7391 71.0061L41.4348 60.7018L38 64.1366L51.7391 77.8757L81.18 48.4348L77.7452 45L51.7391 71.0061Z" fill="#5E5E5E"/>
<path d="M388.318 83.18C387.131 83.18 386.114 82.7575 385.269 81.9127C384.425 81.0678 384.001 80.0509 384 78.862V48.636C384 47.4485 384.423 46.4324 385.269 45.5875C386.116 44.7426 387.132 44.3194 388.318 44.318H390.477V40H394.795V44.318H412.067V40H416.385V44.318H418.544C419.731 44.318 420.748 44.7412 421.595 45.5875C422.441 46.4338 422.863 47.45 422.862 48.636V58.7293C422.862 59.341 422.655 59.8542 422.24 60.2687C421.826 60.6832 421.313 60.8898 420.703 60.8883C420.093 60.8869 419.58 60.6796 419.166 60.2665C418.751 59.8534 418.544 59.341 418.544 58.7293V57.272H388.318V78.862H400.84C401.452 78.862 401.965 79.0693 402.38 79.4838C402.794 79.8983 403.001 80.4107 402.999 81.021C402.998 81.6313 402.79 82.1444 402.377 82.5604C401.964 82.9763 401.452 83.1829 400.84 83.18H388.318ZM416.385 85.339C413.398 85.339 410.853 84.2861 408.749 82.1804C406.644 80.0746 405.591 77.5292 405.59 74.544C405.589 71.5588 406.641 69.0134 408.749 66.9076C410.856 64.8019 413.401 63.749 416.385 63.749C419.369 63.749 421.915 64.8019 424.024 66.9076C426.132 69.0134 427.184 71.5588 427.18 74.544C427.176 77.5292 426.123 80.0753 424.021 82.1825C421.92 84.2897 419.374 85.3419 416.385 85.339ZM420.001 79.6716L421.513 78.1603L417.464 74.1122V68.067H415.305V74.9758L420.001 79.6716Z" fill="#5E5E5E"/>
<path d="M764.862 44H730.318C727.922 44 726.022 45.9215 726.022 48.318L726 74.226C726 76.6225 727.922 78.544 730.318 78.544H764.862C767.258 78.544 769.18 76.6225 769.18 74.226V48.318C769.18 45.9215 767.258 44 764.862 44ZM764.862 74.226H730.318V61.272H764.862V74.226ZM764.862 52.636H730.318V48.318H764.862V52.636Z" fill="#5E5E5E"/>
</svg>
