<svg width="73" height="19" viewBox="0 0 73 19" fill="none" xmlns="http://www.w3.org/2000/svg">
<path d="M12.423 5.81304C12.423 7.2468 11.9286 8.4416 10.9398 9.39744C9.96744 10.3368 8.476 10.8065 6.46544 10.8065H3.15296V18H0.90344V0.77016H6.46544C8.41008 0.77016 9.88504 1.23984 10.8903 2.1792C11.9121 3.11856 12.423 4.32984 12.423 5.81304ZM6.46544 8.95248C7.71792 8.95248 8.6408 8.68056 9.23408 8.13672C9.82736 7.59288 10.124 6.81832 10.124 5.81304C10.124 3.68712 8.90448 2.62416 6.46544 2.62416H3.15296V8.95248H6.46544ZM27.5788 10.7076C27.5788 11.1361 27.5541 11.5893 27.5047 12.0672H16.6773C16.7597 13.4021 17.2129 14.4486 18.0369 15.2066C18.8774 15.9482 19.8909 16.319 21.0775 16.319C22.0498 16.319 22.8573 16.0966 23.5 15.6516C24.1592 15.1902 24.6207 14.5804 24.8844 13.8223H27.3069C26.9444 15.1242 26.2192 16.1872 25.1316 17.0112C24.0439 17.8187 22.6925 18.2225 21.0775 18.2225C19.792 18.2225 18.6384 17.9341 17.6167 17.3573C16.6114 16.7805 15.8204 15.9647 15.2436 14.91C14.6668 13.8388 14.3784 12.6028 14.3784 11.202C14.3784 9.8012 14.6585 8.57344 15.2188 7.51872C15.7792 6.464 16.562 5.65648 17.5672 5.09616C18.589 4.51936 19.7591 4.23096 21.0775 4.23096C22.3629 4.23096 23.5 4.51112 24.4888 5.07144C25.4776 5.63176 26.2357 6.40632 26.7631 7.39512C27.3069 8.36744 27.5788 9.4716 27.5788 10.7076ZM25.2552 10.2379C25.2552 9.38096 25.0656 8.6476 24.6866 8.03784C24.3076 7.4116 23.7884 6.94192 23.1292 6.6288C22.4865 6.2992 21.7696 6.1344 20.9786 6.1344C19.8415 6.1344 18.8692 6.49696 18.0616 7.22208C17.2706 7.9472 16.8174 8.95248 16.702 10.2379H25.2552ZM35.3438 18.2225C34.3056 18.2225 33.3744 18.0494 32.5504 17.7034C31.7264 17.3408 31.0755 16.8464 30.5976 16.2202C30.1196 15.5774 29.856 14.8441 29.8065 14.0201H32.1302C32.1961 14.6958 32.5092 15.2478 33.0696 15.6763C33.6464 16.1048 34.3962 16.319 35.3191 16.319C36.176 16.319 36.8517 16.1295 37.3461 15.7505C37.8405 15.3714 38.0877 14.8935 38.0877 14.3167C38.0877 13.7234 37.824 13.2867 37.2967 13.0066C36.7693 12.7099 35.9536 12.4215 34.8494 12.1414C33.8441 11.8777 33.0201 11.614 32.3774 11.3503C31.7512 11.0702 31.2073 10.6664 30.7459 10.139C30.3009 9.5952 30.0784 8.88656 30.0784 8.01312C30.0784 7.32096 30.2844 6.68648 30.6964 6.10968C31.1084 5.53288 31.6935 5.07968 32.4516 4.75008C33.2096 4.404 34.0748 4.23096 35.0472 4.23096C36.5468 4.23096 37.7581 4.61 38.681 5.36808C39.6039 6.12616 40.0983 7.1644 40.1642 8.4828H37.9147C37.8652 7.77416 37.5768 7.2056 37.0495 6.77712C36.5386 6.34864 35.8464 6.1344 34.973 6.1344C34.1655 6.1344 33.5228 6.30744 33.0448 6.65352C32.5669 6.9996 32.328 7.4528 32.328 8.01312C32.328 8.45808 32.468 8.82888 32.7482 9.12552C33.0448 9.40568 33.4074 9.6364 33.8359 9.81768C34.2808 9.98248 34.8906 10.172 35.6652 10.3862C36.6375 10.6499 37.4285 10.9136 38.0383 11.1773C38.648 11.4245 39.1672 11.8035 39.5956 12.3144C40.0406 12.8253 40.2713 13.4927 40.2878 14.3167C40.2878 15.0583 40.0818 15.7258 39.6698 16.319C39.2578 16.9123 38.6728 17.382 37.9147 17.7281C37.1731 18.0577 36.3161 18.2225 35.3438 18.2225ZM42.6229 11.1773C42.6229 9.79296 42.903 8.58168 43.4634 7.54344C44.0237 6.48872 44.79 5.67296 45.7623 5.09616C46.7511 4.51936 47.847 4.23096 49.0501 4.23096C50.2366 4.23096 51.2666 4.4864 52.1401 4.99728C53.0135 5.50816 53.6645 6.15088 54.093 6.92544V4.45344H56.3672V18H54.093V15.4786C53.648 16.2696 52.9806 16.9288 52.0906 17.4562C51.2172 17.967 50.1954 18.2225 49.0254 18.2225C47.8223 18.2225 46.7346 17.9258 45.7623 17.3326C44.79 16.7393 44.0237 15.907 43.4634 14.8358C42.903 13.7646 42.6229 12.5451 42.6229 11.1773ZM54.093 11.202C54.093 10.1802 53.887 9.29032 53.475 8.53224C53.063 7.77416 52.5026 7.19736 51.794 6.80184C51.1018 6.38984 50.3355 6.18384 49.495 6.18384C48.6546 6.18384 47.8882 6.3816 47.1961 6.77712C46.5039 7.17264 45.9518 7.74944 45.5398 8.50752C45.1278 9.2656 44.9218 10.1555 44.9218 11.1773C44.9218 12.2155 45.1278 13.1219 45.5398 13.8965C45.9518 14.6546 46.5039 15.2396 47.1961 15.6516C47.8882 16.0471 48.6546 16.2449 49.495 16.2449C50.3355 16.2449 51.1018 16.0471 51.794 15.6516C52.5026 15.2396 53.063 14.6546 53.475 13.8965C53.887 13.1219 54.093 12.2238 54.093 11.202ZM66.7689 4.20624C68.4169 4.20624 69.7518 4.70888 70.7736 5.71416C71.7953 6.70296 72.3062 8.13672 72.3062 10.0154V18H70.0814V10.3368C70.0814 8.98544 69.7436 7.95544 69.0679 7.2468C68.3922 6.52168 67.4693 6.15912 66.2992 6.15912C65.1127 6.15912 64.1651 6.52992 63.4564 7.27152C62.7643 8.01312 62.4182 9.09256 62.4182 10.5098V18H60.1687V4.45344H62.4182V6.3816C62.8632 5.68944 63.4647 5.15384 64.2228 4.7748C64.9973 4.39576 65.846 4.20624 66.7689 4.20624Z" fill="#5E5E5E"/>
</svg>
