<svg width="97" height="20" viewBox="0 0 97 20" fill="none" xmlns="http://www.w3.org/2000/svg">
<path d="M12.423 6.81304C12.423 8.2468 11.9286 9.4416 10.9398 10.3974C9.96744 11.3368 8.476 11.8065 6.46544 11.8065H3.15296V19H0.90344V1.77016H6.46544C8.41008 1.77016 9.88504 2.23984 10.8903 3.1792C11.9121 4.11856 12.423 5.32984 12.423 6.81304ZM6.46544 9.95248C7.71792 9.95248 8.6408 9.68056 9.23408 9.13672C9.82736 8.59288 10.124 7.81832 10.124 6.81304C10.124 4.68712 8.90448 3.62416 6.46544 3.62416H3.15296V9.95248H6.46544ZM16.3807 3.25336C15.9522 3.25336 15.5896 3.10504 15.293 2.8084C14.9964 2.51176 14.848 2.1492 14.848 1.72072C14.848 1.29224 14.9964 0.92968 15.293 0.63304C15.5896 0.3364 15.9522 0.18808 16.3807 0.18808C16.7927 0.18808 17.1388 0.3364 17.4189 0.63304C17.7156 0.92968 17.8639 1.29224 17.8639 1.72072C17.8639 2.1492 17.7156 2.51176 17.4189 2.8084C17.1388 3.10504 16.7927 3.25336 16.3807 3.25336ZM17.4684 5.45344V19H15.2188V5.45344H17.4684ZM23.5518 0.7072V19H21.3023V0.7072H23.5518ZM28.5475 3.25336C28.1191 3.25336 27.7565 3.10504 27.4599 2.8084C27.1632 2.51176 27.0149 2.1492 27.0149 1.72072C27.0149 1.29224 27.1632 0.92968 27.4599 0.63304C27.7565 0.3364 28.1191 0.18808 28.5475 0.18808C28.9595 0.18808 29.3056 0.3364 29.5858 0.63304C29.8824 0.92968 30.0307 1.29224 30.0307 1.72072C30.0307 2.1492 29.8824 2.51176 29.5858 2.8084C29.3056 3.10504 28.9595 3.25336 28.5475 3.25336ZM29.6352 5.45344V19H27.3857V5.45344H29.6352ZM40.193 5.20624C41.2147 5.20624 42.1376 5.42872 42.9616 5.87368C43.7856 6.30216 44.4283 6.95312 44.8898 7.82656C45.3677 8.7 45.6067 9.76296 45.6067 11.0154V19H43.3819V11.3368C43.3819 9.98544 43.044 8.95544 42.3683 8.2468C41.6927 7.52168 40.7698 7.15912 39.5997 7.15912C38.4131 7.15912 37.4655 7.52992 36.7569 8.27152C36.0647 9.01312 35.7187 10.0926 35.7187 11.5098V19H33.4691V0.7072H35.7187V7.3816C36.1636 6.68944 36.7734 6.15384 37.5479 5.7748C38.339 5.39576 39.2207 5.20624 40.193 5.20624ZM65.2158 19L58.1212 11.139V19H55.8716V1.77016H58.1212V9.75472L65.2405 1.77016H68.0833L60.2718 10.3974L68.1575 19H65.2158ZM76.5779 19.2225C75.309 19.2225 74.1554 18.9341 73.1171 18.3573C72.0954 17.7805 71.2878 16.9647 70.6946 15.91C70.1178 14.8388 69.8294 13.6028 69.8294 12.202C69.8294 10.8177 70.126 9.59816 70.7193 8.54344C71.329 7.47224 72.153 6.65648 73.1913 6.09616C74.2295 5.51936 75.3914 5.23096 76.6768 5.23096C77.9622 5.23096 79.1241 5.51936 80.1623 6.09616C81.2006 6.65648 82.0163 7.464 82.6096 8.51872C83.2194 9.57344 83.5242 10.8012 83.5242 12.202C83.5242 13.6028 83.2111 14.8388 82.5849 15.91C81.9751 16.9647 81.1429 17.7805 80.0882 18.3573C79.0334 18.9341 77.8634 19.2225 76.5779 19.2225ZM76.5779 17.2449C77.3854 17.2449 78.1435 17.0554 78.8522 16.6763C79.5608 16.2973 80.1294 15.7287 80.5578 14.9706C81.0028 14.2126 81.2253 13.2897 81.2253 12.202C81.2253 11.1143 81.011 10.1914 80.5826 9.43336C80.1541 8.67528 79.5938 8.11496 78.9016 7.7524C78.2094 7.37336 77.4596 7.18384 76.6521 7.18384C75.8281 7.18384 75.07 7.37336 74.3778 7.7524C73.7022 8.11496 73.1583 8.67528 72.7463 9.43336C72.3343 10.1914 72.1283 11.1143 72.1283 12.202C72.1283 13.3062 72.3261 14.2373 72.7216 14.9954C73.1336 15.7534 73.6774 16.322 74.3531 16.701C75.0288 17.0636 75.7704 17.2449 76.5779 17.2449ZM91.2776 19.2225C90.2394 19.2225 89.3083 19.0494 88.4843 18.7034C87.6603 18.3408 87.0093 17.8464 86.5314 17.2202C86.0535 16.5774 85.7898 15.8441 85.7404 15.0201H88.064C88.13 15.6958 88.4431 16.2478 89.0034 16.6763C89.5802 17.1048 90.33 17.319 91.2529 17.319C92.1099 17.319 92.7856 17.1295 93.28 16.7505C93.7744 16.3714 94.0216 15.8935 94.0216 15.3167C94.0216 14.7234 93.7579 14.2867 93.2305 14.0066C92.7032 13.7099 91.8874 13.4215 90.7832 13.1414C89.778 12.8777 88.954 12.614 88.3112 12.3503C87.685 12.0702 87.1412 11.6664 86.6797 11.139C86.2348 10.5952 86.0123 9.88656 86.0123 9.01312C86.0123 8.32096 86.2183 7.68648 86.6303 7.10968C87.0423 6.53288 87.6273 6.07968 88.3854 5.75008C89.1435 5.404 90.0087 5.23096 90.981 5.23096C92.4807 5.23096 93.692 5.61 94.6148 6.36808C95.5377 7.12616 96.0321 8.1644 96.098 9.4828H93.8485C93.7991 8.77416 93.5107 8.2056 92.9833 7.77712C92.4724 7.34864 91.7803 7.1344 90.9068 7.1344C90.0993 7.1344 89.4566 7.30744 88.9787 7.65352C88.5008 7.9996 88.2618 8.4528 88.2618 9.01312C88.2618 9.45808 88.4019 9.82888 88.682 10.1255C88.9787 10.4057 89.3412 10.6364 89.7697 10.8177C90.2147 10.9825 90.8244 11.172 91.599 11.3862C92.5713 11.6499 93.3624 11.9136 93.9721 12.1773C94.5819 12.4245 95.101 12.8035 95.5295 13.3144C95.9744 13.8253 96.2052 14.4927 96.2216 15.3167C96.2216 16.0583 96.0156 16.7258 95.6036 17.319C95.1916 17.9123 94.6066 18.382 93.8485 18.7281C93.1069 19.0577 92.25 19.2225 91.2776 19.2225Z" fill="#5E5E5E"/>
</svg>
