<svg width="44" height="46" viewBox="0 0 44 46" fill="none" xmlns="http://www.w3.org/2000/svg">
<path d="M4.318 43.18C3.13055 43.18 2.11438 42.7575 1.26949 41.9127C0.424603 41.0678 0.00143933 40.0509 0 38.862V8.636C0 7.44855 0.423164 6.43238 1.26949 5.58749C2.11582 4.7426 3.13199 4.31944 4.318 4.318H6.477V0H10.795V4.318H28.067V0H32.385V4.318H34.544C35.7314 4.318 36.7483 4.74116 37.5947 5.58749C38.441 6.43382 38.8634 7.44999 38.862 8.636V18.7293C38.862 19.341 38.6547 19.8542 38.2402 20.2687C37.8257 20.6832 37.3133 20.8898 36.703 20.8883C36.0927 20.8869 35.5803 20.6796 35.1658 20.2665C34.7513 19.8534 34.544 19.341 34.544 18.7293V17.272H4.318V38.862H16.8402C17.4519 38.862 17.965 39.0693 18.3796 39.4838C18.7941 39.8983 19.0006 40.4107 18.9992 41.021C18.9978 41.6313 18.7905 42.1444 18.3774 42.5604C17.9643 42.9763 17.4519 43.1829 16.8402 43.18H4.318ZM32.385 45.339C29.3984 45.339 26.8529 44.2861 24.7486 42.1804C22.6443 40.0746 21.5914 37.5292 21.59 34.544C21.5886 31.5588 22.6414 29.0134 24.7486 26.9076C26.8558 24.8019 29.4013 23.749 32.385 23.749C35.3687 23.749 37.9149 24.8019 40.0235 26.9076C42.1322 29.0134 43.1843 31.5588 43.18 34.544C43.1757 37.5292 42.1228 40.0753 40.0214 42.1825C37.9199 44.2897 35.3745 45.3419 32.385 45.339ZM36.0013 39.6716L37.5126 38.1603L33.4645 34.1122V28.067H31.3055V34.9758L36.0013 39.6716Z" fill="#5E5E5E"/>
</svg>
