<svg width="327" height="97" viewBox="0 0 327 97" fill="none" xmlns="http://www.w3.org/2000/svg">
<path d="M0.339816 47.703L17.2319 31.3091C17.9638 30.5988 19.2162 31.1016 19.2162 32.1074V64.8951C19.2162 65.8986 17.9638 66.4037 17.2319 65.6934L0.339816 49.2973C-0.113272 48.8575 -0.113272 48.1427 0.339816 47.703Z" fill="white"/>
<path d="M43.5322 44.5978H28.1969C27.5556 44.5978 27.0352 44.0926 27.0352 43.4702V22.2665C27.0352 21.9665 27.1583 21.6802 27.3744 21.4682L49.1552 0.329794C49.6083 -0.109931 50.3448 -0.109931 50.7979 0.329794L69.3908 18.3743C69.8439 18.8141 69.8439 19.5289 69.3908 19.9686L45.57 43.0892L44.3548 44.2685C44.1363 44.4805 43.8413 44.5978 43.5322 44.5978Z" fill="white"/>
<path d="M44.227 52.5151L69.4396 76.9841C69.8927 77.4238 69.8927 78.1387 69.4396 78.5784L50.7979 96.6703C50.3448 97.11 49.6083 97.11 49.1552 96.6703L27.3744 75.5319C27.156 75.3199 27.0352 75.0335 27.0352 74.7336V53.3111C27.0352 52.6887 27.5556 52.1836 28.1969 52.1836H43.4068C43.7158 52.1836 44.0109 52.3031 44.2293 52.5128L44.227 52.5151Z" fill="white"/>
<path d="M99.6068 49.2971L76.6062 71.6194C76.1531 72.0591 75.4165 72.0591 74.9635 71.6194L54.937 52.1835L51.914 49.2498C51.4609 48.81 51.4609 48.0952 51.914 47.6555L55.0647 44.5977L74.9147 25.3332C75.3678 24.8935 76.1043 24.8935 76.5574 25.3332L99.6068 47.7028C100.06 48.1426 100.06 48.8574 99.6068 49.2971Z" fill="white"/>
<path d="M117.92 30.1025C119.395 30.1025 120.662 30.6144 121.691 31.6111C122.72 32.6078 123.245 33.8368 123.245 35.271V61.729C123.245 63.1609 122.718 64.3899 121.691 65.3888C120.662 66.3878 119.398 66.8974 117.92 66.8974V30.1025ZM142.045 65.8759C140.649 65.2355 139.487 64.3673 138.618 63.3165L124.67 48.5011L138.618 33.6857C139.487 32.6372 140.649 31.7667 142.045 31.1015C143.337 30.4363 145.709 30.1025 149.19 30.1025L131.868 48.5011L149.19 66.8997C145.709 66.8997 143.337 66.5659 142.045 65.8759Z" fill="white"/>
<path d="M157.463 61.551C153.798 57.9678 151.951 53.6449 151.951 48.5779C151.951 43.5109 153.796 39.0077 157.463 35.4516C161.155 31.8684 165.609 30.0779 170.83 30.0779C176.051 30.0779 180.479 31.8684 184.144 35.4516C187.836 39.0077 189.681 43.3328 189.681 48.3998C189.681 53.4668 187.836 57.97 184.144 61.5532C180.479 65.1093 176.023 66.9021 170.83 66.9021C165.637 66.9021 161.155 65.1116 157.463 61.5532V61.551ZM180.375 57.4311C182.984 54.8987 184.276 51.8792 184.276 48.3209C184.276 44.7625 182.984 41.7182 180.375 39.2106C177.766 36.6783 174.654 35.4245 170.988 35.4245C167.321 35.4245 164.185 36.6783 161.575 39.2106C158.991 41.7182 157.7 44.7625 157.7 48.3209C157.7 51.8792 158.991 54.8964 161.575 57.4311C164.185 59.9386 167.324 61.1924 170.988 61.1924C174.652 61.1924 177.763 59.9386 180.375 57.4311Z" fill="white"/>
<path d="M197.719 66.8978C197.719 65.4907 198.246 64.2617 199.273 63.265C200.303 62.266 201.567 61.7564 203.044 61.7564H217.492C218.888 61.7564 220.129 61.3212 221.21 60.4259C222.502 59.3773 223.134 58.0469 223.134 56.4346C223.134 54.926 222.606 53.6451 221.526 52.5966C220.445 51.548 219.153 51.009 217.624 51.009H207.896C204.074 50.6505 201.172 48.9367 199.222 45.8654C198.221 44.253 197.719 42.4626 197.719 40.5165C197.719 37.5737 198.774 35.091 200.909 33.0705C203.019 30.9981 205.575 29.9744 208.556 29.9744H228.461C228.461 31.4063 227.934 32.6353 226.907 33.6342C225.88 34.6332 224.614 35.1428 223.164 35.1428H208.558C207.055 35.1428 205.737 35.6795 204.657 36.7304C203.576 37.7812 203.049 39.0327 203.049 40.5165C203.049 41.9236 203.523 43.1255 204.499 44.1245C205.579 45.2768 206.95 45.8654 208.56 45.8654H218.236C222.086 46.1721 224.985 47.8859 226.963 51.009V51.0338C227.964 52.6462 228.466 54.4366 228.466 56.3827C228.466 58.3288 227.964 60.144 226.963 61.7564C224.72 65.1862 221.609 66.9 217.629 66.9H197.723L197.719 66.8978Z" fill="white"/>
<path d="M252.239 35.2464H237.816C237.816 33.8393 238.344 32.6103 239.371 31.6136C240.398 30.6169 241.664 30.105 243.142 30.105H271.986C271.986 31.5121 271.459 32.7411 270.404 33.7378C269.375 34.7368 268.111 35.2464 266.661 35.2464H257.564V61.7314C257.564 63.1633 257.037 64.3923 256.01 65.3913C254.98 66.3902 253.716 66.8999 252.239 66.8999V35.2464Z" fill="white"/>
<path d="M281.342 35.271C281.342 33.8391 281.869 32.6101 282.896 31.6111C283.926 30.6122 285.19 30.1025 286.667 30.1025V61.756C286.667 63.1631 286.14 64.3921 285.085 65.3888C284.056 66.3878 282.792 66.8974 281.342 66.8974V35.271Z" fill="white"/>
<path d="M296.021 30.1025C297.736 30.1025 299.133 30.7678 300.213 32.0734L321.148 55.0519L321.174 35.3747C321.174 33.9428 321.701 32.7138 322.728 31.7149C323.755 30.7159 325.021 30.2063 326.499 30.2063L326.474 67.0282C324.759 66.5411 323.362 65.6459 322.282 64.3425L301.347 41.1092V61.7335C301.347 63.1654 300.82 64.3944 299.793 65.3933C298.763 66.3923 297.499 66.9019 296.021 66.9019V30.1025Z" fill="white"/>
</svg>
