<svg width="8" height="11" viewBox="0 0 8 11" fill="none" xmlns="http://www.w3.org/2000/svg">
<path d="M3.79167 5.09001C3.43252 5.09001 3.08808 4.94888 2.83413 4.69768C2.58017 4.44648 2.4375 4.10578 2.4375 3.75053C2.4375 3.39528 2.58017 3.05458 2.83413 2.80338C3.08808 2.55218 3.43252 2.41106 3.79167 2.41106C4.15081 2.41106 4.49525 2.55218 4.74921 2.80338C5.00316 3.05458 5.14583 3.39528 5.14583 3.75053C5.14583 3.92643 5.11081 4.10062 5.04275 4.26313C4.9747 4.42564 4.87495 4.5733 4.74921 4.69768C4.62346 4.82207 4.47418 4.92073 4.30988 4.98805C4.14559 5.05536 3.9695 5.09001 3.79167 5.09001ZM3.79167 0C2.78605 0 1.82163 0.395144 1.11055 1.09851C0.399478 1.80187 0 2.75583 0 3.75053C0 6.56343 3.79167 10.7158 3.79167 10.7158C3.79167 10.7158 7.58333 6.56343 7.58333 3.75053C7.58333 2.75583 7.18386 1.80187 6.47278 1.09851C5.7617 0.395144 4.79728 0 3.79167 0Z" fill="#7A7A7A"/>
</svg>
