<svg width="25" height="14" viewBox="0 0 25 14" fill="none" xmlns="http://www.w3.org/2000/svg">
<path d="M0 7.1875C0 6.95833 0.0783333 6.745 0.235 6.5475C0.390833 6.34917 0.614583 6.19792 0.90625 6.09375C1.32292 5.92708 1.73958 5.70292 2.15625 5.42125C2.57292 5.14042 3.25 5 4.1875 5C5.375 5 6.17208 5.20833 6.57875 5.625C6.98458 6.04167 7.5625 6.25 8.3125 6.25C9.10417 6.25 9.6925 6.04167 10.0775 5.625C10.4633 5.20833 11.2708 5 12.5 5C13.6875 5 14.4896 5.20833 14.9062 5.625C15.3229 6.04167 15.8958 6.25 16.625 6.25C17.4167 6.25 18.005 6.04167 18.39 5.625C18.7758 5.20833 19.5833 5 20.8125 5C21.7292 5 22.4013 5.13542 22.8288 5.40625C23.2554 5.67708 23.6771 5.89583 24.0938 6.0625C24.3854 6.16667 24.6092 6.32292 24.765 6.53125C24.9217 6.73958 25 6.95833 25 7.1875C25 7.64583 24.8388 8.01542 24.5163 8.29625C24.1929 8.57792 23.8438 8.65625 23.4688 8.53125C22.9062 8.36458 22.4583 8.15083 22.125 7.89C21.7917 7.63 21.3542 7.5 20.8125 7.5C20.0625 7.5 19.495 7.70833 19.11 8.125C18.7242 8.54167 17.9167 8.75 16.6875 8.75C15.5 8.75 14.6929 8.54167 14.2663 8.125C13.8387 7.70833 13.25 7.5 12.5 7.5C11.7083 7.5 11.1304 7.70833 10.7662 8.125C10.4012 8.54167 9.60417 8.75 8.375 8.75C7.14583 8.75 6.32833 8.54167 5.9225 8.125C5.51583 7.70833 4.9375 7.5 4.1875 7.5C3.64583 7.5 3.20292 7.63 2.85875 7.89C2.51542 8.15083 2.07292 8.36458 1.53125 8.53125C1.15625 8.65625 0.8075 8.57792 0.485 8.29625C0.161667 8.01542 0 7.64583 0 7.1875ZM0 12.1875C0 11.9583 0.0783333 11.745 0.235 11.5475C0.390833 11.3492 0.614583 11.1979 0.90625 11.0938C1.32292 10.9271 1.73958 10.7029 2.15625 10.4213C2.57292 10.1404 3.25 10 4.1875 10C5.41667 10 6.22375 10.2083 6.60875 10.625C6.99458 11.0417 7.5625 11.25 8.3125 11.25C9.10417 11.25 9.6925 11.0417 10.0775 10.625C10.4633 10.2083 11.2708 10 12.5 10C13.6875 10 14.495 10.2083 14.9225 10.625C15.3492 11.0417 15.9375 11.25 16.6875 11.25C17.4792 11.25 18.0575 11.0417 18.4225 10.625C18.7867 10.2083 19.5833 10 20.8125 10C21.75 10 22.4271 10.1404 22.8438 10.4213C23.2604 10.7029 23.6771 10.9271 24.0938 11.0938C24.3854 11.1979 24.6092 11.3492 24.765 11.5475C24.9217 11.745 25 11.9583 25 12.1875C25 12.6458 24.8388 13.0158 24.5163 13.2975C24.1929 13.5783 23.8438 13.6563 23.4688 13.5313C22.9271 13.3646 22.4842 13.1508 22.14 12.89C21.7967 12.63 21.3542 12.5 20.8125 12.5C20.0625 12.5 19.495 12.7083 19.11 13.125C18.7242 13.5417 17.9167 13.75 16.6875 13.75C15.5 13.75 14.6929 13.5417 14.2663 13.125C13.8387 12.7083 13.25 12.5 12.5 12.5C11.7083 12.5 11.12 12.7083 10.735 13.125C10.3492 13.5417 9.54167 13.75 8.3125 13.75C7.08333 13.75 6.28667 13.5417 5.9225 13.125C5.5575 12.7083 4.97917 12.5 4.1875 12.5C3.60417 12.5 3.15125 12.63 2.82875 12.89C2.50542 13.1508 2.07292 13.3646 1.53125 13.5313C1.15625 13.6563 0.8075 13.5783 0.485 13.2975C0.161667 13.0158 0 12.6458 0 12.1875ZM0 2.1875C0 1.95833 0.0783333 1.745 0.235 1.5475C0.390833 1.34917 0.614583 1.19792 0.90625 1.09375C1.32292 0.927083 1.73958 0.703333 2.15625 0.4225C2.57292 0.140833 3.25 0 4.1875 0C5.375 0 6.17208 0.208333 6.57875 0.625C6.98458 1.04167 7.5625 1.25 8.3125 1.25C9.10417 1.25 9.6925 1.04167 10.0775 0.625C10.4633 0.208333 11.2708 0 12.5 0C13.6875 0 14.4896 0.208333 14.9062 0.625C15.3229 1.04167 15.8958 1.25 16.625 1.25C17.4167 1.25 18.005 1.04167 18.39 0.625C18.7758 0.208333 19.5833 0 20.8125 0C21.7292 0 22.4013 0.135416 22.8288 0.40625C23.2554 0.677083 23.6771 0.895833 24.0938 1.0625C24.3854 1.16667 24.6092 1.32292 24.765 1.53125C24.9217 1.73958 25 1.95833 25 2.1875C25 2.64583 24.8388 3.01542 24.5163 3.29625C24.1929 3.57792 23.8438 3.65625 23.4688 3.53125C22.9062 3.36458 22.4583 3.15083 22.125 2.89C21.7917 2.63 21.3542 2.5 20.8125 2.5C20.0625 2.5 19.495 2.70833 19.11 3.125C18.7242 3.54167 17.9167 3.75 16.6875 3.75C15.5 3.75 14.6929 3.54167 14.2663 3.125C13.8387 2.70833 13.25 2.5 12.5 2.5C11.7083 2.5 11.1304 2.70833 10.7662 3.125C10.4012 3.54167 9.60417 3.75 8.375 3.75C7.14583 3.75 6.32833 3.54167 5.9225 3.125C5.51583 2.70833 4.9375 2.5 4.1875 2.5C3.64583 2.5 3.20292 2.63 2.85875 2.89C2.51542 3.15083 2.07292 3.36458 1.53125 3.53125C1.15625 3.65625 0.8075 3.57792 0.485 3.29625C0.161667 3.01542 0 2.64583 0 2.1875Z" fill="black"/>
</svg>
