<svg width="30" height="30" viewBox="0 0 30 30" fill="none" xmlns="http://www.w3.org/2000/svg">
<g clip-path="url(#clip0_48_872)">
<path d="M26.25 13.475V10C26.25 7.9375 24.5625 6.25 22.5 6.25H17.5C16.5375 6.25 15.6625 6.625 15 7.225C14.3375 6.625 13.4625 6.25 12.5 6.25H7.5C5.4375 6.25 3.75 7.9375 3.75 10V13.475C2.9875 14.1625 2.5 15.15 2.5 16.25V23.75H5V21.25H25V23.75H27.5V16.25C27.5 15.15 27.0125 14.1625 26.25 13.475ZM17.5 8.75H22.5C23.1875 8.75 23.75 9.3125 23.75 10V12.5H16.25V10C16.25 9.3125 16.8125 8.75 17.5 8.75ZM6.25 10C6.25 9.3125 6.8125 8.75 7.5 8.75H12.5C13.1875 8.75 13.75 9.3125 13.75 10V12.5H6.25V10Z" fill="black"/>
</g>
<defs>
<clipPath id="clip0_48_872">
<rect width="30" height="30" fill="white"/>
</clipPath>
</defs>
</svg>
