<svg width="16" height="21" viewBox="0 0 16 21" fill="none" xmlns="http://www.w3.org/2000/svg">
<path d="M2.28571 17.1429V19.4286C2.28571 19.7524 2.17638 20.0236 1.95771 20.2423C1.73829 20.4617 1.46667 20.5714 1.14286 20.5714C0.819048 20.5714 0.547429 20.4617 0.328 20.2423C0.109334 20.0236 0 19.7524 0 19.4286V12.5714C0 11.9429 0.224 11.4046 0.672 10.9566C1.11924 10.5093 1.65714 10.2857 2.28571 10.2857H3.42857V8H2.28571C1.65714 8 1.11924 7.776 0.672 7.328C0.224 6.88076 0 6.34286 0 5.71429V2.28571C0 1.65714 0.224 1.11886 0.672 0.670857C1.11924 0.223619 1.65714 0 2.28571 0H13.7143C14.3429 0 14.8811 0.223619 15.3291 0.670857C15.7764 1.11886 16 1.65714 16 2.28571V5.71429C16 6.34286 15.7764 6.88076 15.3291 7.328C14.8811 7.776 14.3429 8 13.7143 8H12.5714V10.2857H13.7143C14.3429 10.2857 14.8811 10.5093 15.3291 10.9566C15.7764 11.4046 16 11.9429 16 12.5714V19.4286C16 19.7524 15.8903 20.0236 15.6709 20.2423C15.4522 20.4617 15.181 20.5714 14.8571 20.5714C14.5333 20.5714 14.2621 20.4617 14.0434 20.2423C13.824 20.0236 13.7143 19.7524 13.7143 19.4286V17.1429H2.28571ZM5.71429 10.2857H10.2857V8H5.71429V10.2857Z" fill="black"/>
</svg>
